<svg width="24" height="24" viewBox="0 0 24 24" fill="none" xmlns="http://www.w3.org/2000/svg">
    <path fill-rule="evenodd" clip-rule="evenodd"
          d="M5 2.5C3.61929 2.5 2.5 3.61929 2.5 5C2.5 6.38071 3.61929 7.5 5 7.5C6.38071 7.5 7.5 6.38071 7.5 5C7.5 3.61929 6.38071 2.5 5 2.5ZM5 9.5C3.61929 9.5 2.5 10.6193 2.5 12C2.5 13.3807 3.61929 14.5 5 14.5C6.38071 14.5 7.5 13.3807 7.5 12C7.5 10.6193 6.38071 9.5 5 9.5ZM2.5 19C2.5 17.6193 3.61929 16.5 5 16.5C6.38071 16.5 7.5 17.6193 7.5 19C7.5 20.3807 6.38071 21.5 5 21.5C3.61929 21.5 2.5 20.3807 2.5 19ZM12 2.5C10.6193 2.5 9.5 3.61929 9.5 5C9.5 6.38071 10.6193 7.5 12 7.5C13.3807 7.5 14.5 6.38071 14.5 5C14.5 3.61929 13.3807 2.5 12 2.5ZM12 16.5C10.6193 16.5 9.5 17.6193 9.5 19C9.5 20.3807 10.6193 21.5 12 21.5C13.3807 21.5 14.5 20.3807 14.5 19C14.5 17.6193 13.3807 16.5 12 16.5ZM16.5 5C16.5 3.61929 17.6193 2.5 19 2.5C20.3807 2.5 21.5 3.61929 21.5 5C21.5 6.38071 20.3807 7.5 19 7.5C17.6193 7.5 16.5 6.38071 16.5 5ZM19 9.5C17.6193 9.5 16.5 10.6193 16.5 12C16.5 13.3807 17.6193 14.5 19 14.5C20.3807 14.5 21.5 13.3807 21.5 12C21.5 10.6193 20.3807 9.5 19 9.5Z"
          fill="url(#paint0_linear_1772_19579)"/>
    <path d="M12 9.17157L14.8284 12L12 14.8284L9.17157 12L12 9.17157Z" fill="black"/>
    <path d="M19.0038 16.2004L21.8322 19.0289L19.0038 21.8573L16.1754 19.0289L19.0038 16.2004Z" fill="black"/>
    <defs>
        <linearGradient id="paint0_linear_1772_19579" x1="21.5" y1="2.5" x2="2.5" y2="21.5"
                        gradientUnits="userSpaceOnUse">
            <stop stop-color="#79E0E8"/>
            <stop offset="0.240823" stop-color="#BA946A"/>
            <stop offset="0.501558" stop-color="#D39DC1"/>
            <stop offset="0.690859" stop-color="#6787D1"/>
            <stop offset="0.906947" stop-color="#B37DBA"/>
        </linearGradient>
    </defs>
</svg>
