<svg width="24" height="24" viewBox="0 0 24 24" fill="none" xmlns="http://www.w3.org/2000/svg">
<path fill-rule="evenodd" clip-rule="evenodd" d="M19.119 4.76938L16.6144 9.06364H14.373L17.9983 2.84545L19.119 4.76938ZM15.0522 2.5H17.2936L13.6683 8.71818L12.5476 6.79426L15.0522 2.5ZM12.9127 9.26707L11.761 11.1364L7.80159 4.71475L8.95333 2.84545L12.9127 9.26707ZM4.51587 4.73212L5.92048 2.5H8.24907L6.84861 4.73212L11.0873 11.4818H8.75871L4.51587 4.73212ZM1.62919 9.75455H6.67239L7.80159 11.4818H0.5L1.62919 9.75455ZM1.62919 14.2455L0.5 12.5182H7.80159L6.67239 14.2455H1.62919ZM8.8046 12.1727H11.0873L7.16365 18.7364H4.88095L8.8046 12.1727ZM8.76506 21.5H6.02024L4.88095 19.6382H7.62577L11.7734 12.8636L12.9127 14.7255L8.76506 21.5ZM15.0522 21.5L12.5476 17.2057L13.6683 15.2818L17.2936 21.5H15.0522ZM19.119 19.2306L17.9983 21.1545L14.373 14.9364H16.6144L19.119 19.2306ZM13.7065 14.2455L12.5476 12.5182H20.5157L21.6746 14.2455H13.7065ZM20.9561 11.636H20.9191H12.5476L13.7024 9.75455H22.1109L23.5 12.0185L22.3452 13.9L20.9561 11.636Z" fill="black" fill-opacity="0.3"/>
</svg>
