<svg width="38" height="32" viewBox="0 0 38 32" fill="none" xmlns="http://www.w3.org/2000/svg">
<g clip-path="url(#clip0_1534_22663)">
<path fill-rule="evenodd" clip-rule="evenodd" d="M37.4664 16.003L34.6995 11.275H27.034L30.8698 4.72803L28.1029 0H22.569L18.7332 6.54696L14.9035 0.00602296H9.36966L6.60274 4.73405L10.4386 11.281H2.77303L0 16.003L2.76692 20.731H10.4325L6.59663 27.278L9.36356 32H14.8974L18.7332 25.453L22.569 32H22.624H28.1029L30.8698 27.278L27.034 20.731H34.6995L37.4664 16.003ZM29.4711 4.72803L25.6353 11.275H22.2026L27.7547 1.80087L29.4711 4.72803ZM23.2654 1.19857H26.698L21.1459 10.6787L19.4295 7.74553L23.2654 1.19857ZM20.4496 11.8773L18.7332 14.8105L12.8329 4.73405L14.5492 1.80087L20.4496 11.8773ZM8.00147 4.72803L10.066 1.19857H13.4987L11.4342 4.72803L17.6826 15.4007H14.25L8.00147 4.72803ZM3.46934 12.4736H11.1349L12.8512 15.4067H1.75299L3.46934 12.4736ZM3.46934 19.5325L1.75299 16.5993H12.8512L11.1349 19.5325H3.46934ZM14.25 16.5993H17.6826L11.7823 26.6757H8.34963L14.25 16.5993ZM14.2011 30.8075H10.066L8.34963 27.8743H12.4847L18.7332 17.2016L20.4496 20.1348L14.2011 30.8075ZM23.2654 30.8075L19.4295 24.2605L21.1459 21.3273L26.698 30.8075H23.2654ZM29.4711 27.278L27.7547 30.2052L22.2026 20.725H25.6353L29.4711 27.278ZM21.5001 19.5325L19.7838 16.5993H31.5844L33.3008 19.5325H21.5001ZM32.2869 15.4067H32.2319H19.7899L21.5063 12.4736H34.0093L36.0738 16.003L34.3514 18.9362L32.2869 15.4067Z" fill="#FF3B80"/>
</g>
<defs>
<clipPath id="clip0_1534_22663">
<rect width="38" height="32" fill="white"/>
</clipPath>
</defs>
</svg>
