<svg width="127" height="24" viewBox="0 0 127 24" fill="none" xmlns="http://www.w3.org/2000/svg">
    <path d="M22.6229 12L18.2541 9.5L23.4966 6.5L30.7052 10.625V13.375L23.4966 17.5L18.2541 14.5L22.6229 12Z" fill="black" fill-opacity="0.3"/>
    <path d="M13.0115 14.5L8.64263 12L13.0115 9.5L7.76887 6.5L0.560303 10.625V13.375L7.76887 17.5L13.0115 14.5Z" fill="black" fill-opacity="0.3"/>
    <path d="M15.6328 17L20.0016 19.5L15.6328 22L11.2639 19.5L15.6328 17Z" fill="black" fill-opacity="0.3"/>
    <path d="M20.0016 4.5L15.6328 2L11.2639 4.5L15.6328 7L20.0016 4.5Z" fill="black" fill-opacity="0.3"/>
    <path d="M42.4667 16.354C41.4323 16.354 40.4995 16.1335 39.6681 15.6925C38.8367 15.2419 38.1842 14.6235 37.7105 13.8374C37.2368 13.0417 37 12.1549 37 11.177C37 10.1991 37.2368 9.31711 37.7105 8.53097C38.1842 7.73525 38.8367 7.11689 39.6681 6.67588C40.4995 6.22529 41.4323 6 42.4667 6C43.5011 6 44.4339 6.22529 45.2653 6.67588C46.0967 7.11689 46.7492 7.73046 47.2229 8.51659C47.6965 9.30273 47.9334 10.1895 47.9334 11.177C47.9334 12.1645 47.6965 13.0513 47.2229 13.8374C46.7492 14.6235 46.0967 15.2419 45.2653 15.6925C44.4339 16.1335 43.5011 16.354 42.4667 16.354ZM42.4667 14.7146C43.1434 14.7146 43.7524 14.566 44.2938 14.2688C44.8351 13.962 45.2605 13.5402 45.5698 13.0033C45.8791 12.4569 46.0338 11.8481 46.0338 11.177C46.0338 10.5059 45.8791 9.90192 45.5698 9.36504C45.2605 8.81858 44.8351 8.39675 44.2938 8.09956C43.7524 7.79277 43.1434 7.63938 42.4667 7.63938C41.79 7.63938 41.181 7.79277 40.6396 8.09956C40.0983 8.39675 39.6729 8.81858 39.3636 9.36504C39.0542 9.90192 38.8996 10.5059 38.8996 11.177C38.8996 11.8481 39.0542 12.4569 39.3636 13.0033C39.6729 13.5402 40.0983 13.962 40.6396 14.2688C41.181 14.566 41.79 14.7146 42.4667 14.7146Z" fill="black" fill-opacity="0.3"/>
    <path d="M53.7596 8.44469C54.5137 8.44469 55.1855 8.60767 55.7752 8.93363C56.3746 9.25959 56.8434 9.71976 57.1818 10.3142C57.5201 10.9086 57.6893 11.594 57.6893 12.3706C57.6893 13.1471 57.5201 13.8374 57.1818 14.4414C56.8434 15.0358 56.3746 15.4959 55.7752 15.8219C55.1855 16.1479 54.5137 16.3108 53.7596 16.3108C52.7156 16.3108 51.8891 15.9657 51.2801 15.2754V19H49.4675V8.53097H51.1931V9.53761C51.4927 9.1733 51.8601 8.90007 52.2951 8.71792C52.7398 8.53577 53.228 8.44469 53.7596 8.44469ZM53.5566 14.7721C54.2237 14.7721 54.7698 14.5516 55.1952 14.1106C55.6302 13.6696 55.8477 13.0896 55.8477 12.3706C55.8477 11.6515 55.6302 11.0715 55.1952 10.6305C54.7698 10.1895 54.2237 9.96903 53.5566 9.96903C53.1216 9.96903 52.7301 10.0697 52.3821 10.271C52.0341 10.4628 51.7586 10.7408 51.5556 11.1051C51.3526 11.4694 51.2511 11.8912 51.2511 12.3706C51.2511 12.8499 51.3526 13.2718 51.5556 13.6361C51.7586 14.0004 52.0341 14.2832 52.3821 14.4845C52.7301 14.6763 53.1216 14.7721 53.5566 14.7721Z" fill="black" fill-opacity="0.3"/>
    <path d="M66.3975 12.4137C66.3975 12.5383 66.3878 12.7157 66.3685 12.9458H60.2928C60.3991 13.5114 60.6746 13.962 61.1193 14.2976C61.5737 14.6235 62.1344 14.7865 62.8014 14.7865C63.6521 14.7865 64.3529 14.5085 64.904 13.9524L65.8755 15.0597C65.5275 15.472 65.0876 15.7836 64.5559 15.9945C64.0243 16.2054 63.4249 16.3108 62.7579 16.3108C61.9072 16.3108 61.158 16.1431 60.5103 15.8075C59.8626 15.472 59.3599 15.007 59.0023 14.4126C58.6542 13.8086 58.4802 13.1279 58.4802 12.3706C58.4802 11.6228 58.6494 10.9517 58.9878 10.3573C59.3358 9.75332 59.8143 9.28355 60.4233 8.94801C61.0323 8.61246 61.7187 8.44469 62.4824 8.44469C63.2364 8.44469 63.9083 8.61246 64.4979 8.94801C65.0973 9.27397 65.5613 9.73894 65.89 10.3429C66.2283 10.9373 66.3975 11.6276 66.3975 12.4137ZM62.4824 9.88274C61.9024 9.88274 61.4093 10.0553 61.0033 10.4004C60.607 10.736 60.3653 11.1866 60.2783 11.7522H64.672C64.5946 11.1962 64.3578 10.7456 63.9614 10.4004C63.5651 10.0553 63.0721 9.88274 62.4824 9.88274Z" fill="black" fill-opacity="0.3"/>
    <path d="M72.2422 8.44469C73.2186 8.44469 74.0016 8.72751 74.5913 9.29314C75.181 9.85878 75.4758 10.6976 75.4758 11.8097V16.2102H73.6633V12.0398C73.6633 11.3687 73.5038 10.8654 73.1848 10.5299C72.8658 10.1847 72.4114 10.0122 71.8217 10.0122C71.1547 10.0122 70.6278 10.2135 70.2412 10.6162C69.8545 11.0092 69.6611 11.5796 69.6611 12.3274V16.2102H67.8486V8.53097H69.5741V9.52323C69.8738 9.16851 70.2508 8.90007 70.7052 8.71792C71.1595 8.53577 71.6719 8.44469 72.2422 8.44469Z" fill="black" fill-opacity="0.3"/>
    <path d="M80.8058 16.354C80.0228 16.354 79.2639 16.2437 78.5292 16.0232C77.8042 15.8027 77.229 15.5103 76.8037 15.146L77.4562 13.6936C77.8719 14.0195 78.3794 14.288 78.9787 14.4989C79.5878 14.7002 80.1968 14.8009 80.8058 14.8009C81.5598 14.8009 82.1205 14.681 82.4879 14.4414C82.8649 14.2017 83.0534 13.8853 83.0534 13.4923C83.0534 13.2046 82.947 12.9698 82.7344 12.7876C82.5314 12.5959 82.2704 12.4473 81.9513 12.3418C81.6323 12.2364 81.1973 12.1165 80.6463 11.9823C79.8729 11.8001 79.2446 11.618 78.7612 11.4358C78.2876 11.2537 77.8767 10.9709 77.5287 10.5874C77.1903 10.1943 77.0212 9.66704 77.0212 9.00553C77.0212 8.44948 77.171 7.94617 77.4707 7.49558C77.78 7.0354 78.2392 6.67109 78.8482 6.40265C79.4669 6.13422 80.221 6 81.1103 6C81.729 6 82.338 6.0767 82.9374 6.23009C83.5367 6.38348 84.0539 6.60398 84.4889 6.89159L83.8944 8.34403C83.4497 8.08518 82.9857 7.88864 82.5024 7.75443C82.019 7.62021 81.5502 7.5531 81.0958 7.5531C80.3515 7.5531 79.7956 7.67773 79.4283 7.92699C79.0706 8.17625 78.8917 8.50701 78.8917 8.91925C78.8917 9.20686 78.9932 9.44174 79.1963 9.62389C79.4089 9.80605 79.6748 9.94985 79.9938 10.0553C80.3128 10.1608 80.7478 10.2806 81.2988 10.4148C82.0528 10.5874 82.6715 10.7695 83.1549 10.9613C83.6382 11.1434 84.0491 11.4263 84.3874 11.8097C84.7354 12.1932 84.9095 12.7109 84.9095 13.3628C84.9095 13.9189 84.7548 14.4222 84.4454 14.8728C84.1458 15.3234 83.6866 15.6829 83.0679 15.9513C82.4492 16.2198 81.6952 16.354 80.8058 16.354Z" fill="black" fill-opacity="0.3"/>
    <path d="M93.8839 8.53097V19H92.0713V15.2754C91.4623 15.9657 90.6358 16.3108 89.5918 16.3108C88.8377 16.3108 88.161 16.1479 87.5617 15.8219C86.972 15.4959 86.508 15.0358 86.1696 14.4414C85.841 13.847 85.6766 13.1567 85.6766 12.3706C85.6766 11.594 85.8458 10.9086 86.1841 10.3142C86.5225 9.71976 86.9865 9.25959 87.5762 8.93363C88.1659 8.60767 88.8377 8.44469 89.5918 8.44469C90.1234 8.44469 90.6068 8.53577 91.0418 8.71792C91.4865 8.90007 91.8587 9.1733 92.1583 9.53761V8.53097H93.8839ZM89.7948 14.7721C90.4618 14.7721 91.0128 14.5516 91.4478 14.1106C91.8828 13.6696 92.1003 13.0896 92.1003 12.3706C92.1003 11.6515 91.8828 11.0715 91.4478 10.6305C91.0128 10.1895 90.4618 9.96903 89.7948 9.96903C89.1277 9.96903 88.5767 10.1895 88.1417 10.6305C87.7164 11.0715 87.5037 11.6515 87.5037 12.3706C87.5037 13.0896 87.7164 13.6696 88.1417 14.1106C88.5767 14.5516 89.1277 14.7721 89.7948 14.7721Z" fill="black" fill-opacity="0.3"/>
    <path d="M103.462 8.53097V16.2102H101.737V15.2323C101.447 15.5774 101.084 15.8459 100.649 16.0376C100.214 16.2198 99.7452 16.3108 99.2425 16.3108C98.2081 16.3108 97.3913 16.028 96.7919 15.4624C96.2022 14.8872 95.9074 14.0387 95.9074 12.917V8.53097H97.72V12.6726C97.72 13.3628 97.8746 13.8805 98.184 14.2257C98.503 14.5612 98.9525 14.729 99.5325 14.729C100.18 14.729 100.693 14.5324 101.07 14.1394C101.456 13.7367 101.65 13.1615 101.65 12.4137V8.53097H103.462Z" fill="black" fill-opacity="0.3"/>
    <path d="M108.503 8.44469C109.644 8.44469 110.514 8.71792 111.114 9.26438C111.723 9.80125 112.027 10.6161 112.027 11.7091V16.2102H110.316V15.2754C110.094 15.611 109.775 15.8698 109.359 16.052C108.953 16.2246 108.46 16.3108 107.88 16.3108C107.3 16.3108 106.792 16.215 106.357 16.0232C105.922 15.8219 105.584 15.5487 105.342 15.2035C105.11 14.8488 104.994 14.451 104.994 14.01C104.994 13.3197 105.251 12.7684 105.763 12.3562C106.285 11.9344 107.102 11.7235 108.213 11.7235H110.215V11.6084C110.215 11.0715 110.05 10.6593 109.722 10.3717C109.403 10.0841 108.924 9.94027 108.286 9.94027C107.851 9.94027 107.421 10.0074 106.995 10.1416C106.58 10.2758 106.227 10.4628 105.937 10.7024L105.226 9.39381C105.632 9.08702 106.121 8.85214 106.691 8.68916C107.261 8.52618 107.865 8.44469 108.503 8.44469ZM108.257 15.0022C108.711 15.0022 109.112 14.9015 109.461 14.7002C109.818 14.4893 110.07 14.1921 110.215 13.8086V12.917H108.344C107.3 12.917 106.778 13.2574 106.778 13.9381C106.778 14.264 106.908 14.5229 107.169 14.7146C107.43 14.9063 107.793 15.0022 108.257 15.0022Z" fill="black" fill-opacity="0.3"/>
    <path d="M115.789 9.65265C116.311 8.84735 117.229 8.44469 118.544 8.44469V10.156C118.389 10.1272 118.249 10.1128 118.123 10.1128C117.418 10.1128 116.867 10.319 116.47 10.7312C116.074 11.1338 115.876 11.7187 115.876 12.4856V16.2102H114.063V8.53097H115.789V9.65265Z" fill="black" fill-opacity="0.3"/>
    <path d="M127 12.4137C127 12.5383 126.99 12.7157 126.971 12.9458H120.895C121.002 13.5114 121.277 13.962 121.722 14.2976C122.176 14.6235 122.737 14.7865 123.404 14.7865C124.255 14.7865 124.955 14.5085 125.506 13.9524L126.478 15.0597C126.13 15.472 125.69 15.7836 125.158 15.9945C124.627 16.2054 124.027 16.3108 123.36 16.3108C122.51 16.3108 121.76 16.1431 121.113 15.8075C120.465 15.472 119.962 15.007 119.605 14.4126C119.257 13.8086 119.083 13.1279 119.083 12.3706C119.083 11.6228 119.252 10.9517 119.59 10.3573C119.938 9.75332 120.417 9.28355 121.026 8.94801C121.635 8.61246 122.321 8.44469 123.085 8.44469C123.839 8.44469 124.511 8.61246 125.1 8.94801C125.7 9.27397 126.164 9.73894 126.492 10.3429C126.831 10.9373 127 11.6276 127 12.4137ZM123.085 9.88274C122.505 9.88274 122.012 10.0553 121.606 10.4004C121.209 10.736 120.968 11.1866 120.881 11.7522H125.274C125.197 11.1962 124.96 10.7456 124.564 10.4004C124.168 10.0553 123.675 9.88274 123.085 9.88274Z" fill="black" fill-opacity="0.3"/>
</svg>
